<svg width="17" height="13" viewBox="0 0 17 13" fill="none" xmlns="http://www.w3.org/2000/svg">
<path fill-rule="evenodd" clip-rule="evenodd" d="M7.35433 4.35489C7.30788 4.40146 7.25271 4.4384 7.19196 4.46361C7.13122 4.48881 7.06609 4.50179 7.00033 4.50179C6.93456 4.50179 6.86944 4.48881 6.80869 4.46361C6.74795 4.4384 6.69277 4.40146 6.64633 4.35489L4.00033 1.70789L1.35433 4.35489C1.30784 4.40138 1.25265 4.43826 1.19191 4.46342C1.13117 4.48858 1.06607 4.50153 1.00033 4.50153C0.934583 4.50153 0.869483 4.48858 0.808743 4.46342C0.748004 4.43826 0.692815 4.40138 0.646327 4.35489C0.599839 4.30841 0.562962 4.25322 0.537803 4.19248C0.512645 4.13174 0.499696 4.06664 0.499696 4.00089C0.499696 3.93515 0.512645 3.87005 0.537804 3.80931C0.562962 3.74857 0.599839 3.69338 0.646327 3.64689L3.64633 0.646894C3.69277 0.60033 3.74795 0.563388 3.80869 0.538181C3.86944 0.512975 3.93456 0.5 4.00033 0.5C4.06609 0.5 4.13122 0.512975 4.19196 0.538181C4.25271 0.563388 4.30788 0.60033 4.35433 0.646894L7.35433 3.64689C7.40089 3.69334 7.43783 3.74851 7.46304 3.80926C7.48825 3.87001 7.50122 3.93513 7.50122 4.00089C7.50122 4.06666 7.48825 4.13178 7.46304 4.19253C7.43783 4.25327 7.40089 4.30845 7.35433 4.35489Z" fill="#00A6B0"/>
<path fill-rule="evenodd" clip-rule="evenodd" d="M4.00037 1C4.13297 1 4.26015 1.05268 4.35392 1.14645C4.44769 1.24021 4.50037 1.36739 4.50037 1.5L4.50037 12C4.50037 12.1326 4.44769 12.2598 4.35392 12.3536C4.26015 12.4473 4.13297 12.5 4.00037 12.5C3.86776 12.5 3.74058 12.4473 3.64681 12.3536C3.55304 12.2598 3.50037 12.1326 3.50037 12L3.50037 1.5C3.50037 1.36739 3.55304 1.24021 3.64681 1.14645C3.74058 1.05268 3.86776 1 4.00037 1Z" fill="#00A6B0"/>
<g opacity="0.78">
<path fill-rule="evenodd" clip-rule="evenodd" d="M9.14689 9.14511C9.19334 9.09854 9.24851 9.0616 9.30926 9.03639C9.37001 9.01119 9.43513 8.99821 9.50089 8.99821C9.56666 8.99821 9.63178 9.01119 9.69253 9.03639C9.75327 9.0616 9.80845 9.09854 9.85489 9.14511L12.5009 11.7921L15.1469 9.14511C15.1934 9.09862 15.2486 9.06174 15.3093 9.03658C15.37 9.01142 15.4351 8.99847 15.5009 8.99847C15.5666 8.99847 15.6317 9.01142 15.6925 9.03658C15.7532 9.06174 15.8084 9.09862 15.8549 9.14511C15.9014 9.19159 15.9383 9.24678 15.9634 9.30752C15.9886 9.36826 16.0015 9.43336 16.0015 9.49911C16.0015 9.56485 15.9886 9.62995 15.9634 9.69069C15.9383 9.75143 15.9014 9.80662 15.8549 9.85311L12.8549 12.8531C12.8084 12.8997 12.7533 12.9366 12.6925 12.9618C12.6318 12.987 12.5667 13 12.5009 13C12.4351 13 12.37 12.987 12.3093 12.9618C12.2485 12.9366 12.1933 12.8997 12.1469 12.8531L9.14689 9.85311C9.10033 9.80666 9.06339 9.75149 9.03818 9.69074C9.01297 9.62999 9 9.56487 9 9.49911C9 9.43334 9.01297 9.36822 9.03818 9.30747C9.06339 9.24673 9.10033 9.19155 9.14689 9.14511Z" fill="#00A6B0"/>
<path fill-rule="evenodd" clip-rule="evenodd" d="M12.5009 12.4991C12.3682 12.4991 12.2411 12.4464 12.1473 12.3526C12.0535 12.2589 12.0009 12.1317 12.0009 11.9991L12.0009 1.49908C12.0009 1.36648 12.0535 1.2393 12.1473 1.14553C12.2411 1.05176 12.3682 0.999084 12.5009 0.999084C12.6335 0.999084 12.7606 1.05176 12.8544 1.14553C12.9482 1.2393 13.0009 1.36648 13.0009 1.49908L13.0009 11.9991C13.0009 12.1317 12.9482 12.2589 12.8544 12.3526C12.7606 12.4464 12.6335 12.4991 12.5009 12.4991Z" fill="#00A6B0"/>
</g>
</svg>
